<svg width="28" height="28" viewBox="0 0 28 28" fill="none" xmlns="http://www.w3.org/2000/svg">
<g filter="url(#filter0_d_19_37)">
<path d="M17.7495 0L10.2495 0C6.79826 0 3.99951 2.79875 3.99951 6.25L3.99951 13.75C3.99951 17.2013 6.79826 20 10.2495 20L17.7495 20C21.2008 20 23.9995 17.2013 23.9995 13.75L23.9995 6.25C23.9995 2.79875 21.2008 0 17.7495 0ZM22.1245 13.75C22.1245 16.1625 20.162 18.125 17.7495 18.125L10.2495 18.125C7.83701 18.125 5.87451 16.1625 5.87451 13.75L5.87451 6.25C5.87451 3.8375 7.83701 1.875 10.2495 1.875L17.7495 1.875C20.162 1.875 22.1245 3.8375 22.1245 6.25L22.1245 13.75Z" fill="black"/>
<path d="M13.9995 5C11.2383 5 8.99951 7.23875 8.99951 10C8.99951 12.7613 11.2383 15 13.9995 15C16.7608 15 18.9995 12.7613 18.9995 10C18.9995 7.23875 16.7608 5 13.9995 5ZM13.9995 13.125C12.277 13.125 10.8745 11.7225 10.8745 10C10.8745 8.27625 12.277 6.875 13.9995 6.875C15.722 6.875 17.1245 8.27625 17.1245 10C17.1245 11.7225 15.722 13.125 13.9995 13.125Z" fill="black"/>
<path d="M19.3745 5.29123C19.7425 5.29123 20.0408 4.99295 20.0408 4.62499C20.0408 4.25703 19.7425 3.95874 19.3745 3.95874C19.0065 3.95874 18.7083 4.25703 18.7083 4.62499C18.7083 4.99295 19.0065 5.29123 19.3745 5.29123Z" fill="black"/>
</g>
<defs>
<filter id="filter0_d_19_37" x="-0.000488281" y="0" width="28" height="28" filterUnits="userSpaceOnUse" color-interpolation-filters="sRGB">
<feFlood flood-opacity="0" result="BackgroundImageFix"/>
<feColorMatrix in="SourceAlpha" type="matrix" values="0 0 0 0 0 0 0 0 0 0 0 0 0 0 0 0 0 0 127 0" result="hardAlpha"/>
<feOffset dy="4"/>
<feGaussianBlur stdDeviation="2"/>
<feComposite in2="hardAlpha" operator="out"/>
<feColorMatrix type="matrix" values="0 0 0 0 0 0 0 0 0 0 0 0 0 0 0 0 0 0 0.25 0"/>
<feBlend mode="normal" in2="BackgroundImageFix" result="effect1_dropShadow_19_37"/>
<feBlend mode="normal" in="SourceGraphic" in2="effect1_dropShadow_19_37" result="shape"/>
</filter>
</defs>
</svg>
